<svg width="32" height="32" viewBox="0 0 32 32" fill="none" xmlns="http://www.w3.org/2000/svg">
<g clip-path="url(#clip0_58_6518)">
<path d="M16 0C7.16343 0 0 7.16343 0 16C0 24.8366 7.16343 32 16 32C24.8366 32 32 24.8366 32 16C32 7.16343 24.8366 0 16 0ZM9.70864 6.46279C11.5754 5.23021 13.763 4.57257 16 4.57143C18.2402 4.56907 20.4311 5.22914 22.2971 6.46857L6.46857 22.2971C2.99079 17.0299 4.44136 9.94064 9.70864 6.46279ZM22.2914 25.5372C20.4246 26.7698 18.2371 27.4274 16 27.4286C13.7598 27.4309 11.5689 26.7709 9.70286 25.5314L25.5314 9.70286C29.0092 14.9701 27.5586 22.0594 22.2914 25.5372Z" fill="#8CE339"/>
</g>
<defs>
<clipPath id="clip0_58_6518">
<rect width="32" height="32" fill="white"/>
</clipPath>
</defs>
</svg>
