<svg width="32" height="32" viewBox="0 0 32 32" fill="none" xmlns="http://www.w3.org/2000/svg">
<g clip-path="url(#clip0_58_6533)">
<path d="M0.882202 29.3043H31.1654V31.2H0.882202V29.3043Z" fill="#8CE339"/>
<path d="M2.77759 27.6685H29.2694V29.5641H2.77759V27.6685Z" fill="#8CE339"/>
<path d="M31.1653 9.71079V12.1756H0.834717V9.71079L16 0.799988L31.1653 9.71079Z" fill="#8CE339"/>
<path d="M19.7914 24.1865V26.0821H23.5827V24.1865H22.6349V15.656H23.5827V13.7603H19.7914V15.656H20.7392V24.1865H19.7914Z" fill="#8CE339"/>
<path d="M14.1044 24.1865V26.0821H17.8957V24.1865H16.9479V15.656H17.8957V13.7603H14.1044V15.656H15.0522V24.1865H14.1044Z" fill="#8CE339"/>
<path d="M8.41736 24.1865V26.0821H12.2087V24.1865H11.2609V15.656H12.2087V13.7603H8.41736V15.656H9.36519V24.1865H8.41736Z" fill="#8CE339"/>
<path d="M2.73035 24.1865V26.0821H6.52167V24.1865H5.57384V15.656H6.52167V13.7603H2.73035V15.656H3.67818V24.1865H2.73035Z" fill="#8CE339"/>
<path d="M25.4783 24.1865V26.0821H29.2696V24.1865H28.3218V15.656H29.2696V13.7603H25.4783V15.656H26.4261V24.1865H25.4783Z" fill="#8CE339"/>
</g>
<defs>
<clipPath id="clip0_58_6533">
<rect width="32" height="32" fill="white"/>
</clipPath>
</defs>
</svg>
