<svg width="32" height="33" viewBox="0 0 32 33" fill="none" xmlns="http://www.w3.org/2000/svg">
<g clip-path="url(#clip0_34_2576)">
<path d="M27.6826 22.772L23.1819 25.3183C23.1278 24.1757 22.6592 23.3063 20.6679 23.1567H16.0488L12.4658 22.022C12.4171 22.0064 12.3662 21.9985 12.3149 21.9985H7.87306V21.1514C7.87309 21.0857 7.86019 21.0207 7.83507 20.96C7.80996 20.8993 7.77313 20.8442 7.72669 20.7977C7.68026 20.7513 7.62512 20.7145 7.56444 20.6894C7.50376 20.6642 7.43873 20.6513 7.37306 20.6514H1.0918C1.02613 20.6513 0.96109 20.6642 0.90041 20.6894C0.83973 20.7145 0.784595 20.7513 0.738159 20.7977C0.691722 20.8442 0.654893 20.8993 0.62978 20.96C0.604666 21.0207 0.591759 21.0857 0.591797 21.1514V30.7822C0.591759 30.8479 0.604666 30.9129 0.62978 30.9736C0.654893 31.0343 0.691722 31.0894 0.738159 31.1359C0.784595 31.1823 0.83973 31.2191 0.90041 31.2442C0.96109 31.2694 1.02613 31.2823 1.0918 31.2822H7.37306C7.43873 31.2823 7.50376 31.2694 7.56444 31.2442C7.62512 31.2191 7.68026 31.1823 7.7267 31.1359C7.77313 31.0894 7.80996 31.0343 7.83507 30.9736C7.86019 30.9129 7.8731 30.8479 7.87306 30.7822V30.1366C8.41133 29.7844 9.09016 29.466 9.63526 29.6445L16.2696 31.3623C17.1456 31.6453 18.0745 31.7257 18.9862 31.5976C19.8979 31.4695 20.7686 31.1361 21.5327 30.6226L31.1636 24.8945C31.2758 24.8279 31.3575 24.72 31.3912 24.5939C31.425 24.4678 31.4081 24.3335 31.3442 24.2197C30.0806 21.9722 28.5186 22.3418 27.6826 22.772ZM21.0137 29.7681C20.3682 30.2099 19.6296 30.497 18.8551 30.607C18.0807 30.717 17.2913 30.647 16.5483 30.4023L9.91748 28.686C9.57437 28.5955 9.21655 28.5749 8.86533 28.6255C8.5141 28.6761 8.17665 28.7969 7.87305 28.9806V22.9985H12.2378L15.8208 24.1333C15.8696 24.1489 15.9205 24.1568 15.9717 24.1567L20.6304 24.1553C22.02 24.2603 22.2256 24.6494 22.1909 25.6855H16.1406C16.008 25.6855 15.8808 25.7382 15.7871 25.832C15.6933 25.9258 15.6406 26.0529 15.6406 26.1855C15.6406 26.3182 15.6933 26.4453 15.7871 26.5391C15.8808 26.6329 16.008 26.6855 16.1406 26.6855H22.6641C22.7484 26.6741 22.8311 26.6523 22.9102 26.6206L28.1567 23.6519C28.7168 23.3647 29.4409 23.1997 30.2134 24.2964L21.0137 29.7681Z" fill="#8CE339"/>
<path d="M7.07373 19.6318H9.33206C9.39773 19.6319 9.46276 19.619 9.52344 19.5939C9.58412 19.5688 9.63926 19.5319 9.68569 19.4855C9.73213 19.439 9.76896 19.3839 9.79407 19.3232C9.81919 19.2626 9.83209 19.1975 9.83206 19.1318V17.2085H10.5087C10.963 18.4819 11.8599 19.5495 13.0358 20.2167C14.2117 20.8838 15.5883 21.1061 16.9144 20.8429C18.2405 20.5798 19.4278 19.8487 20.2598 18.783C21.0918 17.7174 21.5131 16.3881 21.4467 15.0378C21.3803 13.6874 20.8308 12.4059 19.8983 11.427C18.9658 10.4481 17.7125 9.83696 16.3669 9.7051C15.0214 9.57325 13.6733 9.92944 12.5685 10.7087C11.4637 11.488 10.6758 12.6384 10.3486 13.9502H9.83206V12.0269C9.83209 11.9612 9.81919 11.8962 9.79407 11.8355C9.76896 11.7748 9.73213 11.7197 9.68569 11.6732C9.63926 11.6268 9.58412 11.59 9.52344 11.5649C9.46276 11.5397 9.39773 11.5268 9.33206 11.5269H7.07376C7.00808 11.5268 6.94305 11.5397 6.88237 11.5648C6.82169 11.59 6.76655 11.6268 6.72012 11.6732C6.67368 11.7197 6.63685 11.7748 6.61174 11.8355C6.58662 11.8962 6.57372 11.9612 6.57376 12.0269V13.9502H4.65039C4.58472 13.9502 4.51968 13.9631 4.459 13.9882C4.39832 14.0133 4.34319 14.0501 4.29675 14.0966C4.25032 14.143 4.21349 14.1981 4.18837 14.2588C4.16326 14.3195 4.15035 14.3845 4.15039 14.4502V16.7085C4.15035 16.7742 4.16326 16.8392 4.18837 16.8999C4.21349 16.9606 4.25032 17.0157 4.29675 17.0621C4.34319 17.1086 4.39832 17.1454 4.459 17.1705C4.51968 17.1956 4.58472 17.2085 4.65039 17.2085H6.57373V19.1318C6.57369 19.1975 6.5866 19.2626 6.61171 19.3232C6.63683 19.3839 6.67366 19.439 6.72009 19.4855C6.76653 19.5319 6.82166 19.5688 6.88234 19.5939C6.94302 19.619 7.00806 19.6319 7.07373 19.6318ZM15.8125 10.6782C16.6462 10.6778 17.4646 10.9023 18.1814 11.328C18.8982 11.7537 19.4869 12.3649 19.8855 13.0972C20.284 13.8295 20.4777 14.6557 20.446 15.4888C20.4144 16.3219 20.1585 17.131 19.7055 17.8309C19.2525 18.5308 18.6191 19.0956 17.8721 19.4656C17.125 19.8357 16.2919 19.9974 15.4606 19.9337C14.6294 19.87 13.8307 19.5832 13.1488 19.1036C12.4668 18.624 11.9269 17.9693 11.5858 17.2085H11.7549C11.8206 17.2085 11.8856 17.1956 11.9463 17.1705C12.0069 17.1454 12.0621 17.1086 12.1085 17.0621C12.155 17.0157 12.1918 16.9606 12.2169 16.8999C12.242 16.8392 12.2549 16.7742 12.2549 16.7085V14.4502C12.2549 14.3845 12.242 14.3195 12.2169 14.2588C12.1918 14.1981 12.155 14.143 12.1085 14.0966C12.0621 14.0501 12.0069 14.0133 11.9463 13.9882C11.8856 13.9631 11.8206 13.9502 11.7549 13.9502H11.3844C11.675 13.0026 12.262 12.1734 13.0591 11.5844C13.8563 10.9954 14.8214 10.6778 15.8125 10.6782Z" fill="#8CE339"/>
<path d="M1.0918 9.07275H2.67236V10.6533C2.67232 10.719 2.68523 10.784 2.71035 10.8447C2.73546 10.9054 2.77229 10.9605 2.81873 11.007C2.86516 11.0534 2.9203 11.0902 2.98098 11.1153C3.04166 11.1404 3.10669 11.1534 3.17236 11.1533H5.11133C5.177 11.1534 5.24203 11.1404 5.30271 11.1153C5.36339 11.0902 5.41853 11.0534 5.46497 11.007C5.5114 10.9605 5.54823 10.9054 5.57334 10.8447C5.59846 10.784 5.61136 10.719 5.61133 10.6533V9.07275H7.19189C7.25756 9.07279 7.3226 9.05988 7.38328 9.03477C7.44396 9.00966 7.49909 8.97283 7.54553 8.92639C7.59197 8.87995 7.6288 8.82482 7.65391 8.76414C7.67902 8.70346 7.69193 8.63842 7.69189 8.57275V6.6333C7.69193 6.56763 7.67902 6.50259 7.65391 6.44191C7.6288 6.38123 7.59197 6.3261 7.54553 6.27966C7.49909 6.23322 7.44396 6.19639 7.38328 6.17128C7.3226 6.14617 7.25756 6.13326 7.19189 6.1333H5.61133V4.55322C5.61136 4.48755 5.59846 4.42252 5.57334 4.36184C5.54823 4.30116 5.5114 4.24602 5.46497 4.19958C5.41853 4.15315 5.36339 4.11632 5.30271 4.09121C5.24203 4.06609 5.177 4.05318 5.11133 4.05322H3.17236C3.10669 4.05318 3.04166 4.06609 2.98098 4.09121C2.9203 4.11632 2.86516 4.15315 2.81872 4.19958C2.77229 4.24602 2.73546 4.30116 2.71034 4.36184C2.68523 4.42252 2.67232 4.48755 2.67236 4.55322V6.1333H1.0918C1.02613 6.13326 0.96109 6.14617 0.90041 6.17128C0.83973 6.19639 0.784595 6.23322 0.738159 6.27966C0.691722 6.3261 0.654893 6.38123 0.62978 6.44191C0.604666 6.50259 0.591759 6.56763 0.591797 6.6333V8.57275C0.591759 8.63842 0.604666 8.70346 0.62978 8.76414C0.654893 8.82482 0.691722 8.87995 0.738159 8.92639C0.784595 8.97283 0.83973 9.00966 0.90041 9.03477C0.96109 9.05988 1.02613 9.07279 1.0918 9.07275Z" fill="#8CE339"/>
<path d="M9.78418 8.70117H10.5264V9.44336C10.5264 9.57597 10.579 9.70314 10.6728 9.79691C10.7666 9.89068 10.8938 9.94336 11.0264 9.94336C11.159 9.94336 11.2862 9.89068 11.3799 9.79691C11.4737 9.70314 11.5264 9.57597 11.5264 9.44336V8.70117H12.2686C12.4012 8.70117 12.5284 8.64849 12.6221 8.55472C12.7159 8.46095 12.7686 8.33378 12.7686 8.20117C12.7686 8.06856 12.7159 7.94138 12.6221 7.84761C12.5284 7.75385 12.4012 7.70117 12.2686 7.70117H11.5264V6.95947C11.5264 6.82686 11.4737 6.69969 11.3799 6.60592C11.2862 6.51215 11.159 6.45947 11.0264 6.45947C10.8938 6.45947 10.7666 6.51215 10.6728 6.60592C10.579 6.69969 10.5264 6.82686 10.5264 6.95947V7.70117H9.78418C9.65157 7.70117 9.5244 7.75385 9.43063 7.84761C9.33686 7.94138 9.28418 8.06856 9.28418 8.20117C9.28418 8.33378 9.33686 8.46095 9.43063 8.55472C9.5244 8.64849 9.65157 8.70117 9.78418 8.70117Z" fill="#8CE339"/>
<path d="M22.5576 13.5177C22.5991 13.6008 22.6629 13.6706 22.7419 13.7195C22.8209 13.7683 22.912 13.7941 23.0048 13.7941H24.9628L24.9555 21.0572C24.9555 21.1229 24.9684 21.188 24.9935 21.2487C25.0186 21.3094 25.0554 21.3646 25.1019 21.4111C25.1483 21.4575 25.2034 21.4944 25.2641 21.5196C25.3248 21.5448 25.3898 21.5577 25.4555 21.5577H28.4477C28.5134 21.5578 28.5784 21.5449 28.6391 21.5198C28.6998 21.4946 28.7549 21.4578 28.8014 21.4114C28.8478 21.3649 28.8846 21.3098 28.9097 21.2491C28.9349 21.1884 28.9478 21.1234 28.9477 21.0577V13.7941H30.9077C31.0006 13.7941 31.0916 13.7682 31.1706 13.7194C31.2497 13.6705 31.3135 13.6006 31.355 13.5175C31.3965 13.4344 31.4141 13.3414 31.4057 13.2489C31.3973 13.1564 31.3634 13.068 31.3076 12.9938L27.3559 7.73352C27.3073 7.67454 27.2462 7.62704 27.1771 7.59444C27.108 7.56183 27.0325 7.54492 26.956 7.54492C26.8796 7.54492 26.8041 7.56183 26.7349 7.59444C26.6658 7.62704 26.6047 7.67454 26.5561 7.73352L22.6049 12.9938C22.5492 13.0681 22.5153 13.1565 22.5069 13.249C22.4986 13.3415 22.5161 13.4346 22.5576 13.5177Z" fill="#8CE339"/>
<path d="M13.8272 7.13525H15.8878L15.8931 8.3667C15.8936 8.49897 15.9465 8.62566 16.0403 8.71901C16.134 8.81236 16.2609 8.86476 16.3931 8.86474H19.4576C19.5885 8.86471 19.7142 8.81335 19.8077 8.7217C19.9012 8.63004 19.955 8.5054 19.9576 8.37451L19.9815 7.13525H22.0514C22.1442 7.13526 22.2353 7.10939 22.3143 7.06055C22.3933 7.01171 22.4572 6.94182 22.4987 6.85873C22.5402 6.77563 22.5578 6.68261 22.5494 6.5901C22.541 6.49759 22.507 6.40924 22.4513 6.33496L18.339 0.861328C18.2904 0.802245 18.2293 0.754656 18.1602 0.721983C18.0911 0.689309 18.0155 0.672363 17.939 0.672363C17.8626 0.672363 17.787 0.689309 17.7179 0.721983C17.6488 0.754656 17.5877 0.802245 17.5391 0.861328L13.4273 6.33496C13.3715 6.40924 13.3376 6.49759 13.3292 6.5901C13.3208 6.68261 13.3384 6.77563 13.3799 6.85873C13.4214 6.94182 13.4853 7.01171 13.5643 7.06055C13.6433 7.10939 13.7343 7.13526 13.8272 7.13525Z" fill="#8CE339"/>
<path d="M15.793 15.8125C16.7349 15.8125 16.8189 15.9307 16.8189 16.2686C16.8189 16.9349 15.2316 16.8685 14.9829 16.5454C14.9019 16.4404 14.7824 16.3719 14.6508 16.3549C14.5192 16.338 14.3863 16.374 14.2813 16.4551C14.1762 16.5361 14.1077 16.6556 14.0908 16.7872C14.0738 16.9188 14.1099 17.0517 14.1909 17.1567C14.4949 17.4858 14.9088 17.6922 15.3545 17.7371V18.1328C15.3545 18.2654 15.4072 18.3926 15.5009 18.4864C15.5947 18.5801 15.7219 18.6328 15.8545 18.6328C15.9871 18.6328 16.1143 18.5801 16.208 18.4864C16.3018 18.3926 16.3545 18.2654 16.3545 18.1328V17.7392C17.2069 17.6025 17.8188 17.0866 17.8188 16.2686C17.8188 14.8125 16.3994 14.8125 15.793 14.8125C14.8877 14.8125 14.8877 14.6113 14.8877 14.3564C14.8877 13.6826 16.436 13.7862 16.7056 14.0566C16.7936 14.1558 16.9175 14.2159 17.0498 14.2237C17.1822 14.2315 17.3122 14.1865 17.4114 14.0984C17.5105 14.0103 17.5706 13.8865 17.5784 13.7541C17.5863 13.6218 17.5412 13.4917 17.4531 13.3926C17.1499 13.1133 16.7646 12.9394 16.3545 12.8968V12.4927C16.3545 12.3601 16.3018 12.2329 16.208 12.1391C16.1143 12.0454 15.9871 11.9927 15.8545 11.9927C15.7219 11.9927 15.5947 12.0454 15.5009 12.1391C15.4072 12.2329 15.3545 12.3601 15.3545 12.4927V12.8906C14.3531 13.0427 13.8877 13.651 13.8877 14.3564C13.8877 15.8125 15.3218 15.8125 15.793 15.8125Z" fill="#8CE339"/>
</g>
<defs>
<clipPath id="clip0_34_2576">
<rect width="32" height="32" fill="white" transform="translate(0 0.166992)"/>
</clipPath>
</defs>
</svg>
