<svg width="32" height="33" viewBox="0 0 32 33" fill="none" xmlns="http://www.w3.org/2000/svg">
<path d="M14.6667 20.4999C13.6329 20.5 12.6393 20.1 11.894 19.3836C11.1488 18.6672 10.7098 17.6902 10.6691 16.6572C10.6285 15.6243 10.9893 14.6157 11.6759 13.843C12.3625 13.0702 13.3216 12.5933 14.3522 12.5122C14.4565 12.504 14.5623 12.4999 14.6667 12.4999V9.83319C14.6661 9.38198 14.7809 8.93812 15 8.54369C14.8912 8.51505 14.7792 8.50032 14.6667 8.49986H10.307C10.5788 8.03293 10.7014 7.49408 10.6583 6.95553C10.6039 6.26866 10.2857 5.62951 9.77047 5.17205C9.25522 4.71459 8.5829 4.47432 7.89442 4.5016C7.20593 4.52889 6.55473 4.8216 6.0773 5.31839C5.59986 5.81519 5.33324 6.4775 5.33333 7.16653C5.33333 7.63494 5.45743 8.09499 5.693 8.49986H1.33333C0.979711 8.49986 0.640573 8.64034 0.390524 8.89038C0.140476 9.14043 0 9.47957 0 9.83319L0 23.1665C0 23.5201 0.140476 23.8593 0.390524 24.1093C0.640573 24.3594 0.979711 24.4999 1.33333 24.4999H5.693C5.4212 24.9668 5.29861 25.5056 5.34167 26.0442C5.3961 26.7311 5.71428 27.3702 6.22953 27.8277C6.74478 28.2851 7.4171 28.5254 8.10558 28.4981C8.79407 28.4708 9.44527 28.1781 9.9227 27.6813C10.4001 27.1845 10.6668 26.5222 10.6667 25.8332C10.6667 25.3648 10.5426 24.9047 10.307 24.4999H14.6667C14.7792 24.4994 14.8912 24.4847 15 24.456C14.7809 24.0616 14.6661 23.6177 14.6667 23.1665V20.4999Z" fill="#8CE339"/>
<path d="M30.6669 8.5H26.3072C26.579 8.96693 26.7016 9.50578 26.6585 10.0443C26.6041 10.7312 26.2859 11.3703 25.7707 11.8278C25.2554 12.2853 24.5831 12.5255 23.8946 12.4983C23.2061 12.471 22.5549 12.1783 22.0775 11.6815C21.6 11.1847 21.3334 10.5224 21.3335 9.83333C21.3335 9.36492 21.4576 8.90487 21.6932 8.5H17.3335C16.9799 8.5 16.6408 8.64048 16.3907 8.89052C16.1407 9.14057 16.0002 9.47971 16.0002 9.83333V14.193C15.5333 13.9213 14.9946 13.7987 14.4562 13.8415C13.7689 13.8954 13.1293 14.2134 12.6714 14.7287C12.2134 15.244 11.9729 15.9166 12.0001 16.6054C12.0274 17.2942 12.3203 17.9457 12.8175 18.4233C13.3147 18.9008 13.9775 19.1672 14.6669 19.1667C15.1353 19.1667 15.5953 19.0426 16.0002 18.807V23.1667C16.0002 23.5203 16.1407 23.8594 16.3907 24.1095C16.6408 24.3595 16.9799 24.5 17.3335 24.5H21.6932C21.4214 24.0331 21.2988 23.4942 21.3419 22.9557C21.3963 22.2688 21.7145 21.6297 22.2297 21.1722C22.745 20.7147 23.4173 20.4745 24.1058 20.5017C24.7943 20.529 25.4455 20.8217 25.9229 21.3185C26.4003 21.8153 26.6669 22.4776 26.6669 23.1667C26.6669 23.6351 26.5428 24.0951 26.3072 24.5H30.6669C31.0205 24.5 31.3596 24.3595 31.6097 24.1095C31.8597 23.8594 32.0002 23.5203 32.0002 23.1667V9.83333C32.0002 9.47971 31.8597 9.14057 31.6097 8.89052C31.3596 8.64048 31.0205 8.5 30.6669 8.5Z" fill="#8CE339"/>
</svg>
