<svg width="32" height="33" viewBox="0 0 32 33" fill="none" xmlns="http://www.w3.org/2000/svg">
<g clip-path="url(#clip0_17_4140)">
<path d="M14.2437 17.3785C14.2437 18.6635 13.323 19.7091 12.1655 19.7091C11.0262 19.7091 10.0874 18.6635 10.0874 17.3785C10.0874 16.0941 11.008 15.0479 12.1655 15.0479C13.3318 15.0479 14.2618 16.1035 14.2437 17.3785Z" fill="#8CE339"/>
<path d="M21.9272 17.3785C21.9272 18.6635 21.016 19.7091 19.8491 19.7091C18.7097 19.7091 17.771 18.6635 17.771 17.3785C17.771 16.0941 18.6916 15.0479 19.8491 15.0479C21.016 15.0479 21.9454 16.1035 21.9272 17.3785Z" fill="#8CE339"/>
<path d="M16 0.5C7.16375 0.5 0 7.66375 0 16.5C0 25.3363 7.16375 32.5 16 32.5C24.8363 32.5 32 25.3363 32 16.5C32 7.66375 24.8363 0.5 16 0.5ZM27.4319 22.3906C25.4544 23.8431 23.5381 24.725 21.6488 25.3094C21.6187 25.3188 21.5862 25.3075 21.5675 25.2819C21.1312 24.6744 20.735 24.0338 20.3875 23.3612C20.3675 23.3219 20.3856 23.2744 20.4269 23.2588C21.0562 23.0206 21.655 22.7362 22.2313 22.4C22.2769 22.3731 22.2794 22.3081 22.2375 22.2769C22.1156 22.1862 21.9944 22.0906 21.8787 21.995C21.8569 21.9775 21.8275 21.9737 21.8031 21.9856C18.0631 23.7137 13.9663 23.7137 10.1819 21.9856C10.1575 21.975 10.1281 21.9788 10.1075 21.9963C9.99187 22.0912 9.87063 22.1862 9.74938 22.2769C9.7075 22.3081 9.71063 22.3731 9.75625 22.4C10.3325 22.73 10.9313 23.0206 11.56 23.2594C11.6013 23.275 11.6206 23.3219 11.6 23.3612C11.2606 24.035 10.8638 24.675 10.4194 25.2825C10.4 25.3075 10.3681 25.3188 10.3381 25.3094C8.4575 24.725 6.54187 23.8431 4.56375 22.3906C4.5475 22.3775 4.53562 22.3575 4.53375 22.3363C4.13125 18.0219 4.9525 13.6538 7.95 9.175C7.9575 9.16313 7.96812 9.15375 7.98125 9.14875C9.45562 8.47125 11.0363 7.97312 12.6875 7.68875C12.7175 7.68437 12.7475 7.69812 12.7631 7.72437C12.9675 8.08625 13.2006 8.54938 13.3588 8.92813C15.0994 8.6625 16.8675 8.6625 18.645 8.92813C18.8025 8.5575 19.0275 8.08625 19.2306 7.72437C19.2463 7.69687 19.2762 7.68313 19.3062 7.68875C20.9587 7.97375 22.5394 8.4725 24.0131 9.14875C24.0262 9.15375 24.0369 9.16313 24.0431 9.17625C26.6544 13.0169 27.9444 17.3494 27.4619 22.3375C27.46 22.3587 27.4494 22.3775 27.4319 22.3906Z" fill="#8CE339"/>
</g>
<defs>
<clipPath id="clip0_17_4140">
<rect width="32" height="32" fill="white" transform="translate(0 0.5)"/>
</clipPath>
</defs>
</svg>
