<svg width="32" height="33" viewBox="0 0 32 33" fill="none" xmlns="http://www.w3.org/2000/svg">
<g clip-path="url(#clip0_34_2559)">
<path d="M27.517 20.7779C27.4883 20.7719 27.4683 20.7472 27.4683 20.7179V12.949C27.4683 12.9197 27.4883 12.8951 27.517 12.8891C28.6322 12.6537 29.4706 11.6629 29.4706 10.4784C29.4706 9.12068 28.3644 8.01514 27.0074 8.01514C26.2804 8.01514 25.6272 8.33162 25.178 8.83434C25.1585 8.85623 25.1271 8.86128 25.1017 8.84656L18.3706 4.96093C18.3453 4.94628 18.3339 4.91664 18.343 4.8888C18.856 3.3178 17.6907 1.66064 16.0004 1.66064C14.3348 1.66064 13.1388 3.29028 13.6615 4.88874C13.6706 4.91658 13.6593 4.94621 13.6339 4.96087L6.90275 8.84676C6.87741 8.86141 6.84611 8.85642 6.82653 8.83466C6.37392 8.33181 5.72061 8.0152 4.99344 8.0152C3.63645 8.0152 2.53027 9.12068 2.53027 10.4784C2.53027 11.663 3.37226 12.6537 4.48759 12.8891C4.51626 12.8951 4.53623 12.9198 4.53623 12.9491V20.718C4.53623 20.7473 4.51626 20.7719 4.48759 20.778C3.37226 21.013 2.53027 22.0041 2.53027 23.1879C2.53027 24.5464 3.63651 25.6515 4.99344 25.6515C5.72055 25.6515 6.37386 25.3346 6.82653 24.8324C6.84611 24.8107 6.87735 24.8057 6.90269 24.8203L13.634 28.7062C13.6593 28.7209 13.6706 28.7504 13.6615 28.7783C13.1389 30.3791 14.3362 32.0061 16.0005 32.0061C17.6894 32.0061 18.8561 30.3516 18.3431 28.7783C18.334 28.7505 18.3453 28.7208 18.3707 28.7062L25.1017 24.8205C25.1271 24.8058 25.1585 24.8108 25.178 24.8327C25.6272 25.3347 26.2804 25.6516 27.0074 25.6516C28.3644 25.6516 29.4706 24.5465 29.4706 23.188C29.4706 22.004 28.6322 21.013 27.517 20.7779ZM26.5465 20.7179C26.5465 20.7472 26.5265 20.7719 26.4978 20.7779C25.978 20.8873 25.5186 21.1616 25.178 21.5434C25.1585 21.5653 25.1271 21.5703 25.1017 21.5557L22.9004 20.2853C22.8699 20.2677 22.8313 20.2791 22.8152 20.3105C22.6948 20.546 22.5625 20.7744 22.4192 20.995C22.4 21.0246 22.4094 21.0638 22.44 21.0814L24.6373 22.3511C24.6626 22.3657 24.674 22.3954 24.6649 22.4231C24.5039 22.9182 24.504 23.458 24.6649 23.9528C24.6739 23.9806 24.6626 24.0102 24.6372 24.0248L17.9097 27.9102C17.8844 27.9249 17.8532 27.9199 17.8336 27.8981C17.4896 27.5163 17.0301 27.2421 16.5101 27.1326C16.4814 27.1266 16.4615 27.102 16.4615 27.0727V24.5332C16.4615 24.4982 16.4328 24.4707 16.398 24.472C16.3972 24.472 16.3965 24.472 16.3957 24.472L15.6091 24.4722C15.6083 24.4722 15.6077 24.4722 15.6068 24.4722C15.572 24.4709 15.5433 24.4985 15.5433 24.5334V27.0726C15.5433 27.1019 15.5233 27.1266 15.4946 27.1326C14.9714 27.242 14.5118 27.516 14.1711 27.8978C14.1516 27.9196 14.1202 27.9247 14.0948 27.9101L7.36381 24.0247C7.33847 24.0101 7.32707 23.9805 7.33616 23.9527C7.49706 23.4579 7.49712 22.9181 7.33616 22.4231C7.32714 22.3952 7.33847 22.3657 7.36381 22.351L9.56195 21.0828C9.59255 21.0652 9.60195 21.026 9.58269 20.9963C9.43939 20.7758 9.30704 20.5474 9.18659 20.312C9.17053 20.2806 9.13194 20.2692 9.10141 20.2869L6.90275 21.5557C6.87741 21.5703 6.84611 21.5653 6.82659 21.5436C6.48266 21.1616 6.02307 20.8873 5.50314 20.7777C5.47447 20.7717 5.4545 20.747 5.4545 20.7177V12.949C5.4545 12.9197 5.4744 12.8951 5.50307 12.8891C6.02307 12.779 6.48272 12.5049 6.82659 12.1229C6.84618 12.1012 6.87741 12.0962 6.90275 12.1108L9.10109 13.3802C9.13168 13.3979 9.17021 13.3864 9.18627 13.355C9.30672 13.1197 9.43895 12.8912 9.58231 12.6708C9.60157 12.6411 9.59216 12.6019 9.56157 12.5843L7.36375 11.3159C7.3384 11.3013 7.32707 11.2717 7.3361 11.2439C7.49699 10.7491 7.49706 10.2089 7.3361 9.71383C7.32707 9.68599 7.3384 9.65642 7.36375 9.64183L14.0948 5.75722C14.1202 5.74256 14.1515 5.74762 14.1711 5.76951C14.5118 6.15101 14.9714 6.42493 15.4946 6.53437C15.5233 6.54039 15.5433 6.56503 15.5433 6.59434V9.13316C15.5433 9.16816 15.572 9.19562 15.6068 9.1944H15.6091L16.3957 9.1946H16.398C16.4328 9.19588 16.4615 9.16829 16.4615 9.13335V6.59421C16.4615 6.5649 16.4814 6.54026 16.5101 6.53424C17.0301 6.42474 17.4897 6.15069 17.8336 5.76912C17.8532 5.74743 17.8844 5.7425 17.9097 5.75709L24.6373 9.64183C24.6626 9.65642 24.674 9.68605 24.6649 9.71383C24.504 10.2089 24.504 10.7491 24.6649 11.2439C24.674 11.2717 24.6626 11.3013 24.6373 11.3159L22.4404 12.5858C22.4098 12.6034 22.4004 12.6426 22.4196 12.6722C22.5629 12.8928 22.6951 13.1213 22.8155 13.3567C22.8315 13.3881 22.8702 13.3995 22.9007 13.3819L25.1017 12.111C25.1271 12.0964 25.1585 12.1013 25.1781 12.1233C25.5187 12.5051 25.9781 12.779 26.498 12.8891C26.5266 12.8952 26.5465 12.9198 26.5465 12.9491L26.5465 20.7179ZM16.0004 9.977C12.2138 9.977 9.1441 13.0467 9.1441 16.8333C9.1441 20.6199 12.2138 23.6896 16.0004 23.6896C19.787 23.6896 22.8567 20.6199 22.8567 16.8333C22.8567 13.0467 19.787 9.977 16.0004 9.977ZM18.9836 15.7677L14.7809 21.6948C14.7464 21.7435 14.6696 21.7189 14.6696 21.6594V17.2829C14.6696 17.2491 14.6421 17.2215 14.6083 17.2215H13.0673C13.0174 17.2215 12.9885 17.1655 13.0173 17.1248L16.6711 11.9717C16.7056 11.9231 16.7824 11.9476 16.7824 12.0072V15.6096C16.7824 15.6434 16.81 15.6709 16.8437 15.6709H18.9335C18.9834 15.671 19.0124 15.727 18.9836 15.7677Z" fill="#8CE339"/>
</g>
<defs>
<clipPath id="clip0_34_2559">
<rect width="32" height="32" fill="white" transform="translate(0 0.833496)"/>
</clipPath>
</defs>
</svg>
