<svg width="32" height="32" viewBox="0 0 32 32" fill="none" xmlns="http://www.w3.org/2000/svg">
<path d="M30.945 24.275L27.81 18C28.1181 17.733 28.3372 17.3782 28.4379 16.9831C28.5387 16.5881 28.5163 16.1717 28.3738 15.7897C28.2313 15.4077 27.9755 15.0784 27.6406 14.8459C27.3057 14.6134 26.9077 14.4888 26.5 14.4888C26.0923 14.4888 25.6943 14.6134 25.3594 14.8459C25.0245 15.0784 24.7687 15.4077 24.6262 15.7897C24.4837 16.1717 24.4613 16.5881 24.5621 16.9831C24.6628 17.3782 24.8819 17.733 25.19 18L22.055 24.275C22.0203 24.3451 22.0015 24.4219 22 24.5V26.5C22 27.6935 22.4741 28.8381 23.318 29.682C24.1619 30.5259 25.3065 31 26.5 31C27.6935 31 28.8381 30.5259 29.682 29.682C30.5259 28.8381 31 27.6935 31 26.5V24.5C30.9978 24.4236 30.979 24.3485 30.945 24.28V24.275ZM26 24H23.31L26 18.62V24ZM27 24V18.62L29.69 24H27Z" fill="#8CE339"/>
<path d="M27 11.5H26V13.5H27V11.5Z" fill="#8CE339"/>
<path d="M23.3507 12.1447L22.6436 12.8518L24.0578 14.266L24.7649 13.5589L23.3507 12.1447Z" fill="#8CE339"/>
<path d="M29.6457 12.142L28.2314 13.5562L28.9386 14.2633L30.3528 12.8491L29.6457 12.142Z" fill="#8CE339"/>
<path d="M29 5H21.39C21.3061 4.8362 21.1786 4.69873 21.0216 4.60274C20.8645 4.50675 20.684 4.45596 20.5 4.45596C20.316 4.45596 20.1355 4.50675 19.9784 4.60274C19.8214 4.69873 19.6939 4.8362 19.61 5H19V3C19 2.73478 18.8946 2.48043 18.7071 2.29289C18.5196 2.10536 18.2652 2 18 2C17.7348 2 17.4804 2.10536 17.2929 2.29289C17.1054 2.48043 17 2.73478 17 3V2C17 1.73478 16.8946 1.48043 16.7071 1.29289C16.5196 1.10536 16.2652 1 16 1C15.7348 1 15.4804 1.10536 15.2929 1.29289C15.1054 1.48043 15 1.73478 15 2V3C15 2.73478 14.8946 2.48043 14.7071 2.29289C14.5196 2.10536 14.2652 2 14 2C13.7348 2 13.4804 2.10536 13.2929 2.29289C13.1054 2.48043 13 2.73478 13 3V4C13 3.73478 12.8946 3.48043 12.7071 3.29289C12.5196 3.10536 12.2652 3 12 3C11.7348 3 11.4804 3.10536 11.2929 3.29289C11.1054 3.48043 11 3.73478 11 4V5H3C2.46957 5 1.96086 5.21071 1.58579 5.58579C1.21071 5.96086 1 6.46957 1 7C1 7.53043 1.21071 8.03914 1.58579 8.41421C1.96086 8.78929 2.46957 9 3 9H3.57C3.67314 9.38735 3.88891 9.73538 4.19 10L1.055 16.275C1.0203 16.345 1.00152 16.4219 1 16.5V18.5C1 19.6935 1.47411 20.8381 2.31802 21.682C3.16193 22.5259 4.30653 23 5.5 23C6.69347 23 7.83807 22.5259 8.68198 21.682C9.52589 20.8381 10 19.6935 10 18.5V16.5C9.99775 16.4236 9.97899 16.3485 9.945 16.28L6.81 10C7.11109 9.73538 7.32686 9.38735 7.43 9H10.5V12.45C10.501 12.6953 10.5621 12.9366 10.6781 13.1528C10.794 13.369 10.9612 13.5534 11.165 13.69L11.78 14.1C11.8413 14.1409 11.8928 14.1948 11.9308 14.2579C11.9689 14.321 11.9925 14.3917 12 14.465L10.5 31H21L19.5 14.135C19.5007 14.0421 19.5273 13.9513 19.5768 13.8727C19.6262 13.7941 19.6966 13.7309 19.78 13.69L20.675 13.235C20.9247 13.1092 21.1342 12.9162 21.28 12.6776C21.4257 12.4391 21.5019 12.1645 21.5 11.885V9H29C29.5304 9 30.0391 8.78929 30.4142 8.41421C30.7893 8.03914 31 7.53043 31 7C31 6.46957 30.7893 5.96086 30.4142 5.58579C30.0391 5.21071 29.5304 5 29 5ZM5 16H2.31L5 10.62V16ZM8.69 16H6V10.62L8.69 16ZM17.715 9.655C16.852 10.0911 16.1511 10.792 15.715 11.655L15.46 12.155L14.57 11.71L14.825 11.21C15.2812 10.3024 15.9783 9.53781 16.84 9H19L17.715 9.655ZM19.5 8H7.43C7.31486 7.57631 7.0635 7.20229 6.7147 6.93563C6.3659 6.66897 5.93905 6.5245 5.5 6.5245C5.06095 6.5245 4.6341 6.66897 4.2853 6.93563C3.9365 7.20229 3.68514 7.57631 3.57 8H3C2.73478 8 2.48043 7.89464 2.29289 7.70711C2.10536 7.51957 2 7.26522 2 7C2 6.73478 2.10536 6.48043 2.29289 6.29289C2.48043 6.10536 2.73478 6 3 6H11C11 6.26522 11.1054 6.51957 11.2929 6.70711C11.4804 6.89464 11.7348 7 12 7C12.2652 7 12.5196 6.89464 12.7071 6.70711C12.8946 6.51957 13 6.26522 13 6C13 6.26522 13.1054 6.51957 13.2929 6.70711C13.4804 6.89464 13.7348 7 14 7C14.2652 7 14.5196 6.89464 14.7071 6.70711C14.8946 6.51957 15 6.26522 15 6C15 6.26522 15.1054 6.51957 15.2929 6.70711C15.4804 6.89464 15.7348 7 16 7C16.2652 7 16.5196 6.89464 16.7071 6.70711C16.8946 6.51957 17 6.26522 17 6C17 6.26522 17.1054 6.51957 17.2929 6.70711C17.4804 6.89464 17.7348 7 18 7C18.2652 7 18.5196 6.89464 18.7071 6.70711C18.8946 6.51957 19 6.26522 19 6H19.5V8ZM29 8H21.5V6H29C29.2652 6 29.5196 6.10536 29.7071 6.29289C29.8946 6.48043 30 6.73478 30 7C30 7.26522 29.8946 7.51957 29.7071 7.70711C29.5196 7.89464 29.2652 8 29 8Z" fill="#8CE339"/>
</svg>
