<svg width="32" height="32" viewBox="0 0 32 32" fill="none" xmlns="http://www.w3.org/2000/svg">
<path d="M28.845 20.1687L30.4504 21.0956C30.8988 21.3544 31.0525 21.9278 30.7935 22.3762L28.9185 25.6238C28.6596 26.0722 28.0863 26.2259 27.6378 25.9669L26.0325 25.0401L18.8122 29.2087V31.0625C18.8122 31.5802 18.3925 32 17.8747 32H14.1247C13.607 32 13.1872 31.5802 13.1872 31.0625V29.2087L5.9669 25.0401L4.36152 25.9669C3.91315 26.2258 3.33977 26.0722 3.08083 25.6238L1.20583 22.3762C0.946958 21.9278 1.10058 21.3544 1.54896 21.0956L3.15433 20.1687V11.8313L1.54896 10.9044C1.10058 10.6456 0.946958 10.0722 1.20583 9.62381L3.08083 6.37619C3.33971 5.92781 3.91308 5.77413 4.36152 6.03306L5.9669 6.95994L13.1872 2.79125V0.9375C13.1872 0.41975 13.607 0 14.1247 0H17.8747C18.3925 0 18.8122 0.41975 18.8122 0.9375V2.79125L26.0325 6.95994L27.6379 6.03306C28.0863 5.77419 28.6596 5.92781 28.9186 6.37619L30.7936 9.62381C31.0525 10.0722 30.8988 10.6456 30.4505 10.9044L28.8451 11.8313V20.1687H28.845Z" fill="#80E142"/>
<path d="M13.8125 16.7812H14.4318C14.7964 16.7812 15.131 16.9913 15.2815 17.3233C15.647 18.1294 16.4514 18.6562 17.3514 18.6562H18.5C19.7923 18.6562 20.8437 19.7076 20.8437 21C20.8437 22.2924 19.7923 23.3438 18.5 23.3438H13.8125C12.0032 23.3438 10.5312 21.8718 10.5312 20.0625C10.5312 18.2532 12.0032 16.7812 13.8125 16.7812ZM21 9.28125C19.0184 9.28125 17.4062 10.8934 17.4062 12.875C17.4062 14.8566 19.0184 16.4688 21 16.4688C22.9815 16.4688 24.5937 14.8566 24.5937 12.875C24.5937 10.8934 22.9815 9.28125 21 9.28125ZM25.4129 21.0379C25.779 20.6718 25.779 20.0783 25.4129 19.7121L24.1629 18.4621C23.7968 18.096 23.2032 18.096 22.8371 18.4621C22.471 18.8283 22.471 19.4218 22.8371 19.7879L24.0871 21.0379C24.4532 21.4041 25.0468 21.4041 25.4129 21.0379ZM7.91291 18.5379L9.16291 17.2879C9.52903 16.9218 9.52903 16.3282 9.16291 15.9621C8.79678 15.596 8.20322 15.596 7.83709 15.9621L6.58709 17.2121C6.22097 17.5783 6.22097 18.1718 6.58709 18.5379C6.95316 18.9041 7.54678 18.9041 7.91291 18.5379ZM11 9.90625C9.70759 9.90625 8.65622 10.9577 8.65622 12.25C8.65622 13.5423 9.70759 14.5938 11 14.5938C12.2923 14.5938 13.3437 13.5423 13.3437 12.25C13.3437 10.9577 12.2923 9.90625 11 9.90625ZM17.5625 7.25C17.5625 6.73225 17.1427 6.3125 16.625 6.3125H14.75C14.2322 6.3125 13.8125 6.73225 13.8125 7.25C13.8125 7.76775 14.2322 8.1875 14.75 8.1875H16.625C17.1427 8.1875 17.5625 7.76775 17.5625 7.25Z" fill="#163300"/>
</svg>
