<svg width="48" height="49" viewBox="0 0 48 49" fill="none" xmlns="http://www.w3.org/2000/svg">
<g clip-path="url(#clip0_17_4112)">
<path d="M43.268 30.753L45.6761 32.1433C46.3486 32.5317 46.5792 33.3917 46.1908 34.0643L43.3783 38.9357C42.99 39.6083 42.1299 39.8388 41.4572 39.4504L39.0492 38.0601L28.2188 44.3131V47.0938C28.2188 47.8704 27.5892 48.5 26.8126 48.5H21.1876C20.4109 48.5 19.7813 47.8704 19.7813 47.0938V44.3131L8.95083 38.0601L6.54277 39.4504C5.87021 39.8387 5.01014 39.6083 4.62174 38.9357L1.80924 34.0643C1.42092 33.3917 1.65136 32.5317 2.32393 32.1433L4.73199 30.753V18.247L2.32393 16.8567C1.65136 16.4683 1.42092 15.6083 1.80924 14.9357L4.62174 10.0643C5.01005 9.39172 5.87011 9.16119 6.54277 9.54959L8.95083 10.9399L19.7813 4.68687V1.90625C19.7813 1.12962 20.4109 0.5 21.1876 0.5H26.8126C27.5892 0.5 28.2188 1.12962 28.2188 1.90625V4.68687L39.0493 10.9399L41.4573 9.54959C42.1299 9.16128 42.99 9.39172 43.3784 10.0643L46.1909 14.9357C46.5792 15.6083 46.3487 16.4683 45.6762 16.8567L43.2681 18.247V30.753H43.268Z" fill="#80E142"/>
<path d="M20.7187 25.6719H21.6478C22.1946 25.6719 22.6965 25.9869 22.9223 26.485C23.4705 27.6941 24.6771 28.4844 26.0271 28.4844H27.75C29.6885 28.4844 31.2656 30.0614 31.2656 32C31.2656 33.9386 29.6885 35.5156 27.75 35.5156H20.7187C18.0048 35.5156 15.7968 33.3077 15.7968 30.5938C15.7968 27.8798 18.0048 25.6719 20.7187 25.6719ZM31.5 14.4219C28.5276 14.4219 26.1093 16.8401 26.1093 19.8125C26.1093 22.7849 28.5276 25.2031 31.5 25.2031C34.4723 25.2031 36.8906 22.7849 36.8906 19.8125C36.8906 16.8401 34.4723 14.4219 31.5 14.4219ZM38.1194 32.0569C38.6685 31.5077 38.6685 30.6174 38.1194 30.0682L36.2444 28.1932C35.6952 27.644 34.8048 27.644 34.2556 28.1932C33.7065 28.7424 33.7065 29.6327 34.2556 30.1819L36.1306 32.0569C36.6797 32.6061 37.5702 32.6061 38.1194 32.0569ZM11.8694 28.3069L13.7444 26.4319C14.2935 25.8827 14.2935 24.9924 13.7444 24.4432C13.1952 23.894 12.3048 23.894 11.7556 24.4432L9.88064 26.3182C9.33145 26.8674 9.33145 27.7577 9.88064 28.3069C10.4297 28.8561 11.3202 28.8561 11.8694 28.3069ZM16.5 15.3594C14.5614 15.3594 12.9843 16.9365 12.9843 18.875C12.9843 20.8135 14.5614 22.3906 16.5 22.3906C18.4385 22.3906 20.0156 20.8135 20.0156 18.875C20.0156 16.9365 18.4385 15.3594 16.5 15.3594ZM26.3437 11.375C26.3437 10.5984 25.7141 9.96875 24.9375 9.96875H22.125C21.3483 9.96875 20.7187 10.5984 20.7187 11.375C20.7187 12.1516 21.3483 12.7812 22.125 12.7812H24.9375C25.7141 12.7812 26.3437 12.1516 26.3437 11.375Z" fill="#163300"/>
</g>
<defs>
<clipPath id="clip0_17_4112">
<rect width="48" height="48" fill="white" transform="translate(0 0.5)"/>
</clipPath>
</defs>
</svg>
