<svg width="32" height="33" viewBox="0 0 32 33" fill="none" xmlns="http://www.w3.org/2000/svg">
<path d="M18.0497 16.4999C18.0497 21.5184 14.0092 25.5867 9.02487 25.5867C4.04056 25.5867 0 21.5184 0 16.4999C0 11.4814 4.04056 7.41309 9.02487 7.41309C14.0091 7.41309 18.0497 11.4814 18.0497 16.4999Z" fill="#8CE339"/>
<path d="M27.9507 16.4999C27.9507 21.224 25.9303 25.0535 23.4382 25.0535C20.9461 25.0535 18.9258 21.224 18.9258 16.4999C18.9258 11.7759 20.9461 7.94629 23.4382 7.94629C25.9304 7.94629 27.9507 11.7759 27.9507 16.4999Z" fill="#8CE339"/>
<path d="M31.9997 16.4996C31.9997 20.7322 31.2892 24.1633 30.4127 24.1633C29.5361 24.1633 28.8257 20.7322 28.8257 16.4996C28.8257 12.2671 29.5361 8.83594 30.4127 8.83594C31.2892 8.83594 31.9997 12.2671 31.9997 16.4996Z" fill="#8CE339"/>
</svg>
